<?xml version="1.0" encoding="UTF-8"?>
<svg version="1.1" xmlns="http://www.w3.org/2000/svg" width="1024" height="1024">
<path d="M0 0 C337.92 0 675.84 0 1024 0 C1024 337.92 1024 675.84 1024 1024 C686.08 1024 348.16 1024 0 1024 C0 686.08 0 348.16 0 0 Z " fill="#FDFEFE" transform="translate(0,0)"/>
<path d="M0 0 C337.92 0 675.84 0 1024 0 C1024 337.92 1024 675.84 1024 1024 C686.08 1024 348.16 1024 0 1024 C0 686.08 0 348.16 0 0 Z M494.47509766 46.02636719 C400.01359702 46.83719552 304.62253451 83.03442816 213 154 C212.21786133 154.65258789 212.21786133 154.65258789 211.41992188 155.31835938 C195.11341211 168.96808242 178.70753733 183.48646344 164.92578125 199.73046875 C163.31690033 201.62653329 161.68710513 203.49794683 160.04296875 205.36328125 C153.02769471 213.34170089 146.32530351 221.4622376 140 230 C139.27393555 230.97114746 139.27393555 230.97114746 138.53320312 231.96191406 C125.00475819 250.10504292 113.02189213 269.24305646 102 289 C101.59894043 289.71027344 101.19788086 290.42054688 100.78466797 291.15234375 C82.57978919 323.58931615 69.71322579 359.20197628 60 395 C59.72704102 396.00546875 59.45408203 397.0109375 59.17285156 398.046875 C38.88233957 474.69434674 39.07933456 564.03456843 63.31347656 639.83178711 C64.196618 642.62096886 65.04518331 645.42028438 65.8984375 648.21875 C72.31100582 669.05287683 80.11369758 689.1003206 89 709 C89.36448242 709.82822266 89.72896484 710.65644531 90.10449219 711.50976562 C108.64551293 753.5360793 136.22084686 792.56665495 167.38671875 826.16796875 C169.77036108 828.75113869 172.10790961 831.36819248 174.4375 834 C181.46511624 841.82105679 188.87044673 849.34856465 196.8828125 856.1640625 C200.5712472 859.36252064 204.11308686 862.7254614 207.6796875 866.05859375 C211.94243914 869.92095025 216.48360085 873.44181789 221 877 C221.77585449 877.61528564 222.55170898 878.23057129 223.35107422 878.86450195 C243.98672632 895.14878959 265.90398006 909.45613817 289 922 C290.35375732 922.73959961 290.35375732 922.73959961 291.73486328 923.49414062 C322.37761259 940.14327869 354.80313108 953.44442763 388.625 962.0625 C390.53401539 962.55275804 392.44287018 963.0436419 394.3515625 963.53515625 C395.28548828 963.77500244 396.21941406 964.01484863 397.18164062 964.26196289 C400.00676235 965.00177084 402.81954754 965.77893798 405.6328125 966.5625 C457.60097983 980.77968376 517.84031141 982.47901826 571 975 C571.71355652 974.90054077 572.42711304 974.80108154 573.16229248 974.6986084 C635.19891716 965.99977064 695.05464626 946.20849251 749 914 C749.90331055 913.46375 750.80662109 912.9275 751.73730469 912.375 C764.30797085 904.87496827 776.27001385 896.74898215 788 888 C789.13231613 887.16599233 790.2650913 886.33260735 791.3984375 885.5 C800.87625971 878.48300052 809.94052773 871.06844308 818.65625 863.125 C820.80692711 861.17505276 822.98824971 859.26973871 825.1875 857.375 C828.35469248 854.62036766 831.30889385 851.71508816 834.24609375 848.71875 C835.95327361 847.04578978 837.72592833 845.52852674 839.5625 844 C845.64996922 838.75340688 850.9596125 832.69164999 856.37695312 826.77148438 C857.74945791 825.27345569 859.13149548 823.78416945 860.515625 822.296875 C866.24911114 816.06841164 871.43649359 809.47067703 876.61035156 802.77929688 C877.92781747 801.09242204 879.26666213 799.42609036 880.6171875 797.765625 C900.6848 772.97688203 916.77007105 745.45111716 931 717 C931.69802734 715.62376465 931.69802734 715.62376465 932.41015625 714.21972656 C943.42652987 692.44183573 951.75177369 669.28008565 959 646 C959.38381836 644.77385986 959.38381836 644.77385986 959.77539062 643.52294922 C985.2697228 561.05362533 983.61767918 471.04035903 926 297 C925.33387695 295.66026123 925.33387695 295.66026123 924.65429688 294.29345703 C914.78765594 274.46244693 902.80313143 255.7969089 889.54541016 238.07177734 C888.00932174 236.01249673 886.49319036 233.93976837 884.98046875 231.86328125 C878.10944824 222.48860458 870.73579845 213.67014927 863 205 C861.84757813 203.69675781 861.84757813 203.69675781 860.671875 202.3671875 C858.46727493 199.89313631 856.23773287 197.4441257 854 195 C853.50983398 194.45939941 853.01966797 193.91879883 852.51464844 193.36181641 C834.16887736 173.15929811 813.85814875 155.29897071 792 139 C791.36594238 138.52320801 790.73188477 138.04641602 790.07861328 137.55517578 C772.51322856 124.35225441 754.13041914 112.80413842 735 102 C734.24396484 101.57090332 733.48792969 101.14180664 732.70898438 100.69970703 C688.87223107 76.0182489 638.5509195 59.75415153 589 52 C587.9078418 51.82871582 586.81568359 51.65743164 585.69042969 51.48095703 C557.79631464 47.19403114 530.17766382 45.5310618 501.99755859 45.94238281 C499.49017577 45.97852196 496.98267075 46.00760989 494.47509766 46.02636719 Z " fill="#FDFEFE" transform="translate(0,0)"/>
<path d="M0 0 C1.51803756 1.31276036 3.01935951 2.64520056 4.5 4 C5.18191406 4.59039062 5.86382813 5.18078125 6.56640625 5.7890625 C18.76631936 17.01011761 28.79026525 35.40160102 29.66038513 52.07295227 C29.69592395 55.404984 29.67498689 58.73068127 29.625 62.0625 C29.61597656 63.21427734 29.60695313 64.36605469 29.59765625 65.55273438 C29.57428714 68.36871193 29.54152565 71.18424158 29.5 74 C30.25897583 73.98889694 31.01795166 73.97779388 31.79992676 73.96635437 C38.97885587 73.86585661 46.15744032 73.78988653 53.33689117 73.74093914 C57.0273101 73.71492785 60.71714417 73.67968834 64.40722656 73.62280273 C67.97344141 73.56817539 71.53909643 73.53851588 75.10569763 73.52561378 C77.11756881 73.51198086 79.12921708 73.47299653 81.14074707 73.43351746 C88.56567493 73.43125736 93.83525756 73.93688784 99.5 79 C104.84044656 84.6215227 106.03223901 90.93661799 107.48828125 98.3046875 C107.67154465 99.21144226 107.85480804 100.11819702 108.04362488 101.0524292 C108.43456919 102.98875279 108.82345083 104.92549378 109.21044922 106.86260986 C110.22033026 111.9155984 111.24600429 116.9653863 112.26953125 122.015625 C112.4681778 122.9979007 112.66682434 123.98017639 112.87149048 124.99221802 C114.19884163 131.54742381 115.55893349 138.09372517 117 144.625 C118.51672784 151.50065495 120.01384621 158.37994864 121.484375 165.265625 C121.75568993 166.5358828 121.75568993 166.5358828 122.03248596 167.83180237 C122.41110184 169.60475025 122.78968698 171.3777047 123.16824341 173.15066528 C126.23069841 187.49197677 129.33331011 201.82322437 132.49975586 216.14193726 C136.56970935 234.55229682 140.42337285 253.0006019 144.17272949 271.47871399 C145.76680606 279.32986204 147.40119228 287.17240336 149.04199219 295.01391602 C149.3893568 296.67442412 149.73509552 298.33527385 150.07861328 299.99658203 C150.40400722 301.54361718 150.75362275 303.08557 151.11328125 304.625 C154.5249797 325.57765312 148.06649587 348.37061882 136.05078125 365.609375 C122.06827388 384.66391438 102.00587183 397.62427326 78.55866241 401.37660599 C69.07637353 402.68492133 59.47948577 402.41653062 49.92871094 402.38818359 C47.60249588 402.39225743 45.27628276 402.39760383 42.95007324 402.40411377 C36.68176291 402.41769355 30.41360208 402.41252836 24.14528942 402.40297651 C18.23027497 402.39611154 12.31527831 402.40137427 6.40026334 402.4057581 C-6.02329435 402.41427869 -18.44678524 402.40452908 -30.87033197 402.388357 C-41.50310621 402.37494421 -52.1357822 402.37729628 -62.76855469 402.39111328 C-75.15852018 402.40720649 -87.54842745 402.41346823 -99.93840194 402.40427649 C-106.48178829 402.39961437 -113.02510713 402.39893517 -119.56848907 402.40888596 C-125.71807558 402.41758651 -131.8674774 402.41147732 -138.01704407 402.39420319 C-140.26594995 402.39025553 -142.51487153 402.39134268 -144.76377106 402.39799118 C-156.08632568 402.42836488 -166.59638991 402.38268756 -177.5 399 C-179.40072266 398.47019531 -179.40072266 398.47019531 -181.33984375 397.9296875 C-196.13935868 392.8907606 -210.17320872 383.74520799 -219.5 371 C-219.5 370.34 -219.5 369.68 -219.5 369 C-215.27387957 368.13027148 -211.04373675 367.2819554 -206.8125 366.4375 C-205.61431641 366.19064453 -204.41613281 365.94378906 -203.18164062 365.68945312 C-201.44624023 365.34624023 -201.44624023 365.34624023 -199.67578125 364.99609375 C-198.08117065 364.67402954 -198.08117065 364.67402954 -196.4543457 364.34545898 C-191.25037114 363.73694531 -188.09349589 365.03043744 -183.8125 367.875 C-178.8861839 370.9456634 -174.11224932 372.63139885 -168.5 374 C-167.88052113 374.17348803 -167.26104225 374.34697607 -166.62279129 374.52572131 C-164.44539136 375.01220078 -162.53718494 375.1275591 -160.30877686 375.13142776 C-159.05913383 375.13718948 -159.05913383 375.13718948 -157.78424549 375.1430676 C-156.87414565 375.14220112 -155.96404581 375.14133463 -155.02636719 375.14044189 C-153.5699873 375.14489858 -153.5699873 375.14489858 -152.0841856 375.1494453 C-148.82174006 375.15813596 -145.5593312 375.15964088 -142.296875 375.16113281 C-139.96110455 375.16576084 -137.62533485 375.17078548 -135.28956604 375.17617798 C-128.93589431 375.18930819 -122.58223314 375.19574853 -116.22854996 375.20018864 C-112.25778308 375.20311926 -108.28701909 375.20722412 -104.31625366 375.21169281 C-93.31351372 375.22388667 -82.31077572 375.23418433 -71.30802917 375.2375679 C-70.60392932 375.23778747 -69.89982946 375.23800703 -69.17439324 375.23823325 C-68.11576125 375.23856067 -68.11576125 375.23856067 -67.03574276 375.2388947 C-65.605697 375.23933816 -64.17565123 375.23978472 -62.74560547 375.24023438 C-62.03625827 375.2404558 -61.32691107 375.24067723 -60.5960685 375.24090537 C-49.11661593 375.2448486 -37.63722702 375.26228754 -26.15779901 375.2855939 C-14.36028244 375.30935173 -2.56279774 375.32177184 9.23474312 375.32293582 C15.85375165 375.32385033 22.47268699 375.32986705 29.0916748 375.34775543 C35.3231429 375.36426813 41.55445414 375.36637597 47.78593636 375.35761642 C50.0675098 375.35684768 52.34909178 375.36116717 54.63064384 375.37107468 C75.29331204 375.4555051 92.92143109 373.16995071 108.5 358 C114.94041139 350.73653284 119.40298264 343.1915495 122.5 334 C122.86351562 332.92363281 123.22703125 331.84726562 123.6015625 330.73828125 C127.18855197 315.81328594 123.76067795 300.5674903 120.20556641 285.99755859 C119.00097213 280.8799086 118.00817066 275.72177335 117 270.5625 C116.57756858 268.43344566 116.15439409 266.30453863 115.73046875 264.17578125 C115.52341309 263.13502441 115.31635742 262.09426758 115.10302734 261.02197266 C111.6370658 243.6528747 107.81865712 226.36823758 103.95986938 209.08309937 C100.96155423 195.64834371 98.02093685 182.20497484 95.19726562 168.73242188 C93.4712165 160.50925603 91.69263852 152.29891085 89.8828125 144.09375 C89.42246937 142.00058212 88.96218305 139.90740175 88.50195312 137.81420898 C87.82067123 134.71628352 87.13754606 131.61883227 86.44799805 128.5227356 C85.80662127 125.64255228 85.17226803 122.76089535 84.5390625 119.87890625 C84.25205978 118.60430542 84.25205978 118.60430542 83.95925903 117.30395508 C82.68533311 111.46512191 82.10325177 106.03251773 81.5 100 C64.34 100 47.18 100 29.5 100 C29.98978319 109.65716217 29.98978319 109.65716217 33.5 116 C34.21604161 122.23979119 33.22298656 126.86523872 29.5 132 C24.70953545 135.81281872 20.79385503 137.37940201 14.625 137.27734375 C9.42491371 136.59865602 6.2668303 133.9888075 3.125 129.9375 C0.57326575 125.32474962 -0.11258824 121.22257432 0.5 116 C0.974375 115.236875 1.44875 114.47375 1.9375 113.6875 C4.37836254 109.92452446 4.37836254 109.92452446 4.5 100 C-30.15 100 -64.8 100 -100.5 100 C-100.56334169 110.92898075 -100.56334169 110.92898075 -97.5 115 C-96.71420253 120.9291991 -97.12548332 125.93822498 -100.5 131 C-104.36382391 135.79647106 -108.39166651 136.76196235 -114.375 137.4375 C-119.30854196 137.27682909 -122.89408024 135.29478952 -126.5 132 C-130.32998461 126.95431803 -131.21228204 122.2070292 -130.5 116 C-130.025625 115.236875 -129.55125 114.47375 -129.0625 113.6875 C-126.62163746 109.92452446 -126.62163746 109.92452446 -126.5 100 C-143.66 100 -160.82 100 -178.5 100 C-178.83 103.3 -179.16 106.6 -179.5 110 C-179.91155401 112.18566025 -180.36815574 114.36363955 -180.8828125 116.52734375 C-181.29768921 118.3067334 -181.29768921 118.3067334 -181.72094727 120.12207031 C-182.01928467 121.38116211 -182.31762207 122.64025391 -182.625 123.9375 C-185.31640398 135.50312508 -187.77364535 147.09833228 -190.0625 158.75 C-194.65101027 182.04109007 -194.65101027 182.04109007 -197.27026367 192.96142578 C-198.54790826 198.33572882 -199.63011897 203.64174211 -200.31654358 209.12014771 C-203.10728703 231.10308127 -203.10728703 231.10308127 -209.09619141 236.21679688 C-215.8241527 239.98005826 -222.96376488 241.67470944 -230.5 243 C-231.83640331 243.3208038 -233.17115399 243.64920494 -234.5 244 C-233.18389932 232.91034949 -230.90115199 222.11966451 -228.47601318 211.23016357 C-227.33639299 206.11156959 -226.21356324 200.98929169 -225.08984375 195.8671875 C-224.8656073 194.8466629 -224.64137085 193.82613831 -224.41033936 192.77468872 C-222.48544945 183.99055586 -220.66102729 175.1882367 -218.875 166.375 C-216.20940918 153.24897863 -213.36470449 140.16838277 -210.41845703 127.10253906 C-208.81601469 119.98638774 -207.24893023 112.86806987 -205.80078125 105.71875 C-205.53724854 104.43274902 -205.27371582 103.14674805 -205.00219727 101.82177734 C-204.51628953 99.43371666 -204.04076968 97.04350803 -203.57788086 94.65087891 C-201.7217102 85.58071857 -198.96978805 80.56260812 -191.5 75 C-188.24628455 73.91542818 -185.8910068 73.87953143 -182.46801758 73.88647461 C-181.22695755 73.88655014 -179.98589752 73.88662567 -178.70722961 73.88670349 C-177.35299642 73.89181009 -175.99876363 73.89702609 -174.64453125 73.90234375 C-173.25876415 73.90420917 -171.87299639 73.90563249 -170.48722839 73.90663147 C-166.8425209 73.9104469 -163.19785335 73.92026887 -159.55316162 73.93133545 C-155.83297262 73.9415705 -152.11277715 73.94613358 -148.39257812 73.95117188 C-141.09503389 73.96189202 -133.79752254 73.97895675 -126.5 74 C-126.51178284 72.92783737 -126.51178284 72.92783737 -126.52380371 71.83401489 C-126.55521079 68.55863465 -126.57456981 65.28328625 -126.59375 62.0078125 C-126.60631836 60.8835083 -126.61888672 59.7592041 -126.63183594 58.60083008 C-126.71600194 39.41799572 -119.24932047 23.16031246 -106.5 9 C-105.61441406 7.97519531 -105.61441406 7.97519531 -104.7109375 6.9296875 C-77.78584098 -22.2869066 -30.70911344 -23.89009132 0 0 Z " fill="#254F88" transform="translate(560.5,218)"/>
<path d="M0 0 C4.87203487 2.43601743 7.3928968 5.26130299 10 10 C10.58491515 12.87244045 10.61880924 15.63815281 10.5625 18.5625 C10.55371826 19.35462891 10.54493652 20.14675781 10.53588867 20.96289062 C10.20896769 30.50628321 6.52917673 38.08907589 2.1875 46.4375 C0.28490604 50.12302792 -0.72076511 52.77837579 0 57 C0.66 57.99 1.32 58.98 2 60 C10.21514626 60.99084669 17.30511292 58.34441489 25.01953125 55.765625 C26.36760346 55.32565986 27.71605622 54.8868592 29.06486511 54.44915771 C32.60027459 53.29841076 36.13028038 52.13189739 39.65936279 50.96191406 C43.21829538 49.78518731 46.78221695 48.62378511 50.34570312 47.4609375 C55.59615854 45.74527845 60.84417024 44.02248761 66.08911133 42.29003906 C67.24690094 41.90795288 68.40469055 41.5258667 69.5975647 41.13220215 C71.87722224 40.37361809 74.15389927 39.6060212 76.42758179 38.82971191 C77.49392853 38.4666394 78.56027527 38.10356689 79.65893555 37.72949219 C80.59762985 37.40632019 81.53632416 37.08314819 82.50346375 36.75018311 C87.20359886 35.33784153 90.60484513 35.5075924 95.1875 37.125 C98.63961024 39.42640683 100.1701251 41.2698704 102 45 C102.947942 50.33616787 101.97699024 54.42819356 99 59 C95.83357794 61.80428658 92.53481122 63.07500308 88.57421875 64.48828125 C87.95369629 64.71224075 87.33317383 64.93620026 86.69384766 65.16694641 C85.37354779 65.64285911 84.05217519 66.11580472 82.72982788 66.58599854 C79.32519593 67.79710187 75.92870016 69.03064426 72.53125 70.26171875 C71.87058029 70.50047729 71.20991058 70.73923584 70.52922058 70.98522949 C59.04759971 74.27942959 59.04759971 74.27942959 49 80 C48.74994614 82.95817107 48.74994614 82.95817107 49 86 C49.66 86.66 50.32 87.32 51 88 C58.2821973 87.76203361 64.76764177 85.19430253 71.56640625 82.74609375 C74.01493213 81.88334484 76.46350115 81.02071832 78.91210938 80.15820312 C82.74749004 78.79810191 86.58040816 77.43112292 90.4128418 76.06274414 C94.12676959 74.73766237 97.84668389 73.42982064 101.56640625 72.12109375 C102.70823868 71.708629 103.85007111 71.29616425 105.02650452 70.87120056 C115.25976602 67.28013586 115.25976602 67.28013586 121 68 C124.92288321 70.11232173 127.65013043 72.2227025 130 76 C130.50390625 78.55078125 130.50390625 78.55078125 130.5625 81.3125 C130.62630859 82.66794922 130.62630859 82.66794922 130.69140625 84.05078125 C129.62637345 88.59371777 127.62615735 91.21932565 124 94 C118.69306745 96.69917283 113.19268233 98.78162434 107.625 100.875 C106.05214307 101.48361597 104.47996189 102.09398107 102.90844727 102.70605469 C98.28312672 104.49978505 93.6445326 106.25669583 89 108 C88.33002991 108.25148804 87.66005981 108.50297607 86.9697876 108.76208496 C76.58679464 112.65393725 76.58679464 112.65393725 71.93408203 114.33544922 C71.0367334 114.66303223 70.13938477 114.99061523 69.21484375 115.328125 C68.44261475 115.6055957 67.67038574 115.88306641 66.87475586 116.16894531 C64.81071721 116.94936179 64.81071721 116.94936179 63 119 C62.83322718 122.58343976 62.83322718 122.58343976 63 126 C71.20799926 126.62669772 77.4426497 124.39824118 85.0625 121.5 C101.63980798 115.21628508 101.63980798 115.21628508 108.75 118.125 C112.16188688 120.96823907 114.77747674 123.56533375 115.19921875 128.1796875 C114.91793338 132.9535021 113.88650374 135.89699117 110.62182617 139.58105469 C107.55136307 142.26742102 103.91599639 143.49182874 100.125 144.875 C99.26165039 145.2052417 98.39830078 145.5354834 97.50878906 145.87573242 C88.77570775 149.17830878 79.94636774 152.22691446 71.109375 155.23828125 C66.70619183 156.74338261 62.34844525 158.3445432 58 160 C42.83593158 165.72138888 27.84085148 169.43248041 11.875 172.1875 C10.92230225 172.35459473 9.96960449 172.52168945 8.98803711 172.69384766 C3.67275973 173.57166623 -1.52354162 174.10161998 -6.90625 174.34375 C-16.93228235 174.94998407 -26.57960979 177.18420631 -36.375 179.3125 C-38.46461657 179.75806545 -40.55446687 180.20253595 -42.64453125 180.64599609 C-47.09974282 181.59270659 -51.55371872 182.54495219 -56.00683594 183.50146484 C-67.99772925 186.07479423 -79.99925991 188.59806795 -92 191.125 C-93.79831772 191.50375778 -93.79831772 191.50375778 -95.63296509 191.89016724 C-125.84874082 198.25107418 -125.84874082 198.25107418 -140.4831543 201.22454834 C-142.17770746 201.5697544 -143.87173849 201.9175355 -145.56518555 202.26812744 C-147.86619724 202.74370639 -150.16901795 203.20921166 -152.47265625 203.671875 C-153.74375244 203.9306543 -155.01484863 204.18943359 -156.32446289 204.45605469 C-166.29269057 205.93125969 -166.29269057 205.93125969 -170.0625 203.875 C-171 202 -171 202 -171.0625 199 C-170 196 -170 196 -167.55249023 194.47241211 C-163.14263115 192.64464356 -158.73704039 191.52961293 -154.09765625 190.44140625 C-153.14289902 190.21098129 -152.18814178 189.98055634 -151.20445251 189.7431488 C-148.15873941 189.00937942 -145.11078046 188.28552209 -142.0625 187.5625 C-138.07352675 186.60834299 -134.08547245 185.65038646 -130.09765625 184.69140625 C-128.6518795 184.34437149 -128.6518795 184.34437149 -127.17689514 183.99032593 C-116.85737954 181.50295055 -106.59298052 178.84632398 -96.4375 175.75 C-86.71155375 172.82910879 -76.88567906 170.27007641 -67.06811523 167.67871094 C-65.81071533 167.34645508 -64.55331543 167.01419922 -63.2578125 166.671875 C-62.1248877 166.3737793 -60.99196289 166.07568359 -59.82470703 165.76855469 C-57.8667908 165.23583902 -55.92496747 164.64165582 -54 164 C-52.96961044 161.43957934 -52.96961044 161.43957934 -52.3125 158.4375 C-52.06113281 157.42558594 -51.80976563 156.41367187 -51.55078125 155.37109375 C-51.27814453 154.19740234 -51.27814453 154.19740234 -51 153 C-51.92296875 153.4846875 -52.8459375 153.969375 -53.796875 154.46875 C-61.51442709 158.45805971 -69.30805306 162.08206413 -77.375 165.3125 C-78.18163086 165.63734375 -78.98826172 165.9621875 -79.81933594 166.296875 C-97.31383772 173.18323666 -97.31383772 173.18323666 -104 171 C-106.79612568 168.02911646 -107.00789609 166.45797334 -106.9375 162.375 C-105.8704181 158.53350516 -105.26036479 158.03925035 -102 156 C-99.84033203 155.11206055 -99.84033203 155.11206055 -97.5078125 154.38671875 C-96.64373779 154.11093994 -95.77966309 153.83516113 -94.8894043 153.55102539 C-93.97715088 153.26606201 -93.06489746 152.98109863 -92.125 152.6875 C-83.50356001 149.91501895 -75.23134652 146.77673546 -67 143 C-79.41937065 145.70968087 -91.75077856 148.59216635 -103.97729492 152.07128906 C-110.75802801 153.97971324 -117.59575046 155.59442488 -124.45507812 157.19287109 C-130.54756034 158.62354466 -136.54711344 160.2660281 -142.55078125 162.03515625 C-147.20223236 163.33629829 -151.89507439 164.41474292 -156.60107422 165.49804688 C-164.85081206 167.40658228 -173.05829564 169.51322335 -181.16796875 171.953125 C-190.44602059 174.70774228 -190.44602059 174.70774228 -195 173 C-196.9375 171.3125 -196.9375 171.3125 -198 169 C-198.0625 166 -198.0625 166 -197 163 C-192.45555251 159.39275987 -187.89895609 157.75684223 -182.43359375 156.14453125 C-181.16281479 155.75594688 -181.16281479 155.75594688 -179.86636353 155.35951233 C-178.02496972 154.79728676 -176.18226121 154.23935301 -174.33840942 153.6852417 C-169.32040342 152.17556923 -164.31362262 150.62928789 -159.3046875 149.08984375 C-157.71404228 148.60248749 -157.71404228 148.60248749 -156.09126282 148.10528564 C-144.24131935 144.47153692 -132.41678947 140.7590122 -120.60598755 137.00009155 C-118.25145498 136.2525047 -115.89572355 135.50868282 -113.53878784 134.76870728 C-110.22215695 133.72716855 -106.9095552 132.67366106 -103.59765625 131.6171875 C-102.61205719 131.31039566 -101.62645813 131.00360382 -100.61099243 130.68751526 C-95.49810044 129.04063429 -91.18350866 127.41880872 -87 124 C-85.64979023 119.9493707 -85.44271196 116.23538911 -86 112 C-87.79393668 109.12970131 -88.98263276 107.50868362 -92 106 C-100.11372658 105.22907807 -107.15952276 106.77269802 -114.875 109.125 C-115.9585376 109.44194824 -117.0420752 109.75889648 -118.15844727 110.08544922 C-120.37669127 110.73481009 -122.59326952 111.38988962 -124.80810547 112.05078125 C-129.50680982 113.44810131 -134.22214559 114.7852048 -138.9375 116.125 C-140.64587321 116.61444416 -142.35420722 117.10402518 -144.0625 117.59375 C-148.84772979 118.96095851 -153.64107709 120.29766547 -158.4375 121.625 C-163.73286013 123.09130961 -169.02640239 124.56302198 -174.3125 126.0625 C-175.42625 126.37832031 -176.54 126.69414062 -177.6875 127.01953125 C-179.94861338 127.68879948 -182.19865188 128.39637238 -184.4375 129.13671875 C-190.85009231 131.25198357 -196.2332803 132.87312512 -203 132 C-205.125 130.4375 -205.125 130.4375 -206 128 C-206.1875 124.5 -206.1875 124.5 -205 121 C-198.36539802 116.94878286 -190.8826694 114.81710181 -183.52929688 112.42849731 C-179.52015378 111.12512859 -175.5185765 109.79879815 -171.515625 108.4765625 C-170.66713989 108.1969014 -169.81865479 107.9172403 -168.94445801 107.62910461 C-145.72368698 99.96840236 -122.56933345 92.07338652 -99.53320312 83.87350464 C-98.04807012 83.34597831 -96.56179478 82.82165327 -95.07421875 82.30105591 C-87.27150161 79.56492512 -79.73129852 76.54670718 -72.3203125 72.8671875 C-71.66476379 72.54214737 -71.00921509 72.21710724 -70.33380127 71.88221741 C-64.57713501 68.9403937 -59.78708735 65.30511098 -55 61 C-53.77410156 59.93458984 -53.77410156 59.93458984 -52.5234375 58.84765625 C-49.97652857 56.60432625 -47.48219019 54.31463261 -45 52 C-44.20980469 51.27554688 -43.41960937 50.55109375 -42.60546875 49.8046875 C-32.06095304 39.7541798 -21.98739689 27.81789614 -17 14 C-13.79609395 5.15470644 -11.07352371 -2.13203403 0 0 Z " fill="#234E87" transform="translate(485,372)"/>
<path d="M0 0 C42.11573719 -0.83935046 84.33552449 3.26642303 125.10498047 14.078125 C126.45734704 14.42123972 127.81015916 14.76260714 129.16357422 15.1015625 C132.1509963 15.86723256 135.12440123 16.66640385 138.09130859 17.5078125 C139.53634401 17.91707568 140.98318565 18.31998168 142.43115234 18.71875 C179.04586688 28.88166228 214.49173386 44.70861742 247.10498047 64.078125 C247.91644531 64.55491699 248.72791016 65.03170898 249.56396484 65.52294922 C271.01847521 78.15599459 291.06124321 93.05977579 310.10498047 109.078125 C310.66846191 109.55137207 311.23194336 110.02461914 311.8125 110.51220703 C324.05664015 120.81979068 324.05664015 120.81979068 329.53857422 126.5078125 C331.29978905 128.27341939 333.15120953 129.89037097 335.04248047 131.515625 C341.2163171 136.85515938 346.81659166 142.63665761 352.13232422 148.82421875 C354.06941974 151.03749422 356.05540059 153.19973618 358.05639648 155.35522461 C363.66245277 161.40161254 368.99699865 167.60031284 374.10498047 174.078125 C374.79599854 174.95235107 374.79599854 174.95235107 375.50097656 175.84423828 C396.01091556 201.90321416 413.23179881 229.4624045 428.10498047 259.078125 C428.57677734 260.01237305 429.04857422 260.94662109 429.53466797 261.90917969 C444.67733098 292.07947166 456.12596414 324.18360372 463.44189453 357.13183594 C464.0801567 359.96782559 464.75371778 362.7927039 465.44091797 365.6171875 C485.01854436 446.83867346 479.508978 536.3596884 452.10498047 615.078125 C451.30242652 617.44775733 450.50034977 619.81755133 449.69873047 622.1875 C444.40692207 637.62150219 438.22539851 652.40524763 431.10498047 667.078125 C430.34894531 668.65956299 430.34894531 668.65956299 429.57763672 670.27294922 C421.98113366 686.13135975 413.57534092 701.26304425 404.10498047 716.078125 C403.70972168 716.69816406 403.31446289 717.31820312 402.90722656 717.95703125 C400.70963429 721.38077895 398.42589653 724.73707501 396.10498047 728.078125 C395.68071777 728.6978418 395.25645508 729.31755859 394.81933594 729.95605469 C387.84557855 740.1344946 380.45031317 749.83353344 372.56103516 759.31787109 C370.52636926 761.77761978 368.53924722 764.27507297 366.54248047 766.765625 C361.81496802 772.536986 356.75141212 777.97030802 351.65332031 783.41210938 C350.11829531 785.06379822 348.60313569 786.73156411 347.09326172 788.40625 C340.92841424 795.22463979 334.51370743 801.56084251 327.65673828 807.67919922 C325.47725949 809.64402198 323.33956866 811.65228868 321.19750977 813.65771484 C315.04176867 819.40573684 308.73119752 824.87241918 302.10498047 830.078125 C301.20900146 830.78291992 301.20900146 830.78291992 300.29492188 831.50195312 C281.11960623 846.52749443 261.20721201 859.89985736 240.10498047 872.078125 C238.72487793 872.87863281 238.72487793 872.87863281 237.31689453 873.6953125 C216.17549539 885.86880357 193.72613607 895.87677094 170.77197266 904.11572266 C167.93980081 905.13773121 165.12083643 906.19245313 162.30029297 907.24609375 C129.82304877 919.16430119 96.29111734 925.41979426 62.10498047 930.078125 C60.94740234 930.23925781 59.78982422 930.40039062 58.59716797 930.56640625 C9.10429302 937.09946574 -45.47440677 932.51558978 -93.89501953 921.078125 C-95.07354492 920.80033203 -96.25207031 920.52253906 -97.46630859 920.23632812 C-101.21692202 919.34337145 -104.96307318 918.43408339 -108.70751953 917.515625 C-109.85824951 917.23485107 -111.00897949 916.95407715 -112.19458008 916.66479492 C-118.30136788 915.13018647 -124.15494895 913.32399788 -130.03955078 911.09008789 C-133.20227748 909.96923442 -136.38753691 909.08249832 -139.62548828 908.203125 C-147.3868242 906.03117636 -154.77106438 903.14644465 -162.20751953 900.078125 C-162.89722839 899.79566925 -163.58693726 899.5132135 -164.29754639 899.22219849 C-192.46582006 887.66566229 -219.46791457 873.84883 -244.89501953 857.078125 C-245.56662109 856.63678223 -246.23822266 856.19543945 -246.93017578 855.74072266 C-263.70799309 844.64584893 -279.79361739 832.36394131 -294.89501953 819.078125 C-295.71357422 818.35882812 -296.53212891 817.63953125 -297.37548828 816.8984375 C-323.79665461 793.36506586 -323.79665461 793.36506586 -335.05517578 780.19921875 C-337.26402208 777.65271442 -339.54822507 775.1821234 -341.83251953 772.703125 C-346.42185248 767.65348471 -350.73821501 762.48813418 -354.89501953 757.078125 C-355.41692871 756.40168945 -355.93883789 755.72525391 -356.4765625 755.02832031 C-370.41462141 736.9061343 -383.0531871 718.084046 -394.57373047 698.33740234 C-395.76435337 696.30155159 -396.97202379 694.27702901 -398.18408203 692.25390625 C-410.8433843 670.80477038 -420.23216771 647.36406375 -428.89501953 624.078125 C-429.28061035 623.04252441 -429.66620117 622.00692383 -430.06347656 620.93994141 C-434.63509634 608.53639932 -438.36164697 596.13108996 -441.36572266 583.26220703 C-442.11894676 580.1541153 -443.01376334 577.08953052 -443.89501953 574.015625 C-448.39837306 557.12804927 -450.95715028 539.77229592 -453.14501953 522.453125 C-453.38961914 520.53608765 -453.38961914 520.53608765 -453.63916016 518.58032227 C-455.66692128 501.83079966 -456.10488873 485.18171712 -456.08251953 468.328125 C-456.08125061 467.33824585 -456.07998169 466.3483667 -456.07867432 465.32849121 C-455.95495866 414.46192869 -448.73614586 364.1901082 -431.89501953 316.078125 C-431.53746582 315.03769043 -431.17991211 313.99725586 -430.81152344 312.92529297 C-410.38995097 253.87700881 -378.09770476 199.64498342 -336.05126953 153.453125 C-334.64291875 151.90189806 -333.24646119 150.33976627 -331.86376953 148.765625 C-323.14085869 138.87097986 -313.84989362 129.17816866 -303.75830078 120.6640625 C-301.54030768 118.77621093 -299.41259798 116.80109708 -297.27001953 114.828125 C-291.66758712 109.77996672 -285.77967752 105.15568075 -279.80761719 100.55810547 C-277.88241677 99.0683729 -275.97204233 97.5611302 -274.06298828 96.05078125 C-254.83883644 80.95114383 -234.2051831 68.01025684 -212.89501953 56.078125 C-212.1317334 55.64951172 -211.36844727 55.22089844 -210.58203125 54.77929688 C-181.3608724 38.50286336 -149.88921904 26.62427331 -117.89501953 17.078125 C-117.1223877 16.84432129 -116.34975586 16.61051758 -115.55371094 16.36962891 C-78.18996106 5.23195318 -38.82025613 0.77864372 0 0 Z M-43.89501953 11.078125 C-44.58975372 11.15128937 -45.28448792 11.22445374 -46.00027466 11.29983521 C-49.85184928 11.71510684 -53.68612195 12.21155322 -57.52001953 12.765625 C-58.66623779 12.93078613 -59.81245605 13.09594727 -60.9934082 13.26611328 C-73.64049419 15.19470619 -86.03652769 18.11116395 -98.43994141 21.21533203 C-101.58218616 22.00000508 -104.72932103 22.7592484 -107.87939453 23.51171875 C-169.68354241 38.58511727 -227.53498869 69.26522214 -276.89501953 109.078125 C-277.86052734 109.84898437 -278.82603516 110.61984375 -279.82080078 111.4140625 C-285.42447003 115.93187222 -290.80710685 120.63921344 -296.09423828 125.5234375 C-298.23560752 127.47665295 -300.40040865 129.37404376 -302.59814453 131.26171875 C-307.60250928 135.62779272 -312.27381708 140.3107453 -316.95751953 145.015625 C-317.81667969 145.87091797 -318.67583984 146.72621094 -319.56103516 147.60742188 C-324.54875583 152.60276321 -329.30833765 157.7143815 -333.89501953 163.078125 C-334.83205907 164.13827922 -335.77078005 165.19695039 -336.71142578 166.25390625 C-345.06442656 175.74745926 -352.52063965 185.81470338 -359.89501953 196.078125 C-360.68440918 197.16746338 -360.68440918 197.16746338 -361.48974609 198.27880859 C-369.43730594 209.25148726 -376.82477328 220.52164493 -383.89501953 232.078125 C-384.34651367 232.81595215 -384.79800781 233.5537793 -385.26318359 234.31396484 C-391.34885959 244.32017752 -396.87222089 254.50017788 -401.89501953 265.078125 C-402.30864746 265.94260254 -402.72227539 266.80708008 -403.1484375 267.69775391 C-426.85566255 317.47686327 -440.34434232 369.35128378 -445.89501953 424.078125 C-445.98278152 424.87350174 -446.07054352 425.66887848 -446.16096497 426.48835754 C-446.95401482 434.19703228 -447.05633793 441.85258828 -447.06298828 449.59765625 C-447.06621588 450.98654715 -447.06958096 452.37543774 -447.07307434 453.764328 C-447.07902516 456.66637964 -447.08091876 459.56840169 -447.08032227 462.47045898 C-447.0802415 465.39760586 -447.08710974 468.32459457 -447.10083008 471.25170898 C-447.20283998 493.38863677 -446.50817803 515.06673237 -442.45751953 536.890625 C-442.00825813 539.3841069 -441.55903907 541.87759643 -441.10986328 544.37109375 C-440.89700684 545.53560059 -440.68415039 546.70010742 -440.46484375 547.89990234 C-439.99602848 550.51474261 -439.55670881 553.12906195 -439.14892578 555.75390625 C-433.50240193 591.21127029 -420.65539405 625.49971269 -405.89501953 658.078125 C-405.52957031 658.89861328 -405.16412109 659.71910156 -404.78759766 660.56445312 C-396.14534054 679.95478048 -385.58371797 698.3756188 -373.89501953 716.078125 C-373.43772461 716.77099609 -372.98042969 717.46386719 -372.50927734 718.17773438 C-362.81719277 732.76121656 -352.15966898 746.67608053 -340.89501953 760.078125 C-340.24895752 760.8515625 -340.24895752 760.8515625 -339.58984375 761.640625 C-327.06648613 776.60336859 -313.87541982 791.50755586 -299.03564453 804.21484375 C-296.56315467 806.36699277 -294.17230596 808.59793219 -291.77001953 810.828125 C-285.96478738 816.12018746 -279.85852128 820.95355217 -273.6328125 825.73876953 C-271.98531068 827.00853562 -270.34707919 828.28924454 -268.71142578 829.57421875 C-246.24515064 847.10408388 -222.17891663 861.95070805 -196.89501953 875.078125 C-195.97156738 875.55958984 -195.04811523 876.04105469 -194.09667969 876.53710938 C-152.48962997 897.98123822 -106.61991886 911.90079766 -60.35986328 918.53515625 C-56.89501953 919.078125 -56.89501953 919.078125 -53.89501953 920.078125 C-34.23783246 923.01546771 -14.48916586 923.56566806 5.34570312 923.46923828 C8.8946161 923.45214734 12.44285386 923.46235755 15.99174404 923.47953701 C42.67106615 923.58932304 68.82089071 921.40147191 95.04248047 916.265625 C95.9602124 916.08938599 96.87794434 915.91314697 97.82348633 915.73156738 C180.68258373 899.8103389 265.05372948 860.13031484 324.33154297 798.8515625 C326.09804686 797.08505861 327.93963589 795.49326026 329.85498047 793.890625 C335.18936796 789.29596702 339.80908639 784.01696467 344.52734375 778.80859375 C346.08073239 777.10472208 347.64978898 775.41706568 349.22607422 773.734375 C355.47277878 767.06072314 361.42768872 760.2494409 367.10498047 753.078125 C367.59659668 752.4696875 368.08821289 751.86125 368.59472656 751.234375 C424.35539794 682.2117972 456.46006213 598.7644467 465.77954102 510.9921875 C466.01873677 508.8503717 466.30924173 506.71412851 466.62841797 504.58276367 C467.38446328 498.53928321 467.30677242 492.46076241 467.34326172 486.37890625 C467.34812654 485.72077061 467.35299137 485.06263496 467.35800362 484.38455582 C467.39457504 479.38658565 467.41071935 474.38871793 467.41748047 469.390625 C467.41920635 468.28970961 467.41920635 468.28970961 467.4209671 467.1665535 C467.44633004 443.922133 466.84299788 421.06587212 463.10498047 398.078125 C462.9984314 397.40612061 462.89188232 396.73411621 462.78210449 396.04174805 C448.92477655 308.81569649 411.26217143 228.81362201 346.10498047 155.078125 C345.63415039 154.56217773 345.16332031 154.04623047 344.67822266 153.51464844 C336.87428129 144.96795253 329.07560251 136.52475596 320.28076172 128.9765625 C317.79845849 126.81067495 315.39442902 124.56935543 312.97998047 122.328125 C307.22050983 117.08289281 301.17885211 112.28315305 295.00146484 107.54199219 C293.08183287 106.06025772 291.17856853 104.55932903 289.27685547 103.0546875 C272.8275045 90.13566369 255.30758541 78.39044357 237.10498047 68.078125 C235.92814697 67.40668457 235.92814697 67.40668457 234.72753906 66.72167969 C213.32670387 54.57712093 191.13457679 44.6992794 168.10498047 36.078125 C167.03932861 35.67134521 167.03932861 35.67134521 165.95214844 35.25634766 C142.0704464 26.16277147 117.44401193 20.06732565 92.32568359 15.65087891 C89.67727204 15.1798985 87.03914029 14.6811063 84.40185547 14.15234375 C60.88692289 9.58520047 37.1958852 8.59386696 13.30822754 8.7555542 C10.60992309 8.7690351 7.91178213 8.76370013 5.21345901 8.75869083 C-11.24754486 8.73562395 -27.52374626 9.32329061 -43.89501953 11.078125 Z " fill="#DEE0E0" transform="translate(501.89501953125,45.921875)"/>
<path d="M0 0 C7.92 0 15.84 0 24 0 C24.33 11.55 24.66 23.1 25 35 C27.97 33.02 30.94 31.04 34 29 C42.57047113 25.57181155 53.87111932 25.34741597 62.625 28.625 C64.8984375 29.74609375 64.8984375 29.74609375 67 31 C67.71414063 31.42410156 68.42828125 31.84820313 69.1640625 32.28515625 C74.54724501 35.90418719 77.93439719 40.33135575 81 46 C81.41507813 46.75410156 81.83015625 47.50820313 82.2578125 48.28515625 C86.94700455 58.63089115 86.94388333 73.50316278 83.4375 84.25 C78.81917125 94.53108521 71.42224112 101.80521608 61.1484375 106.203125 C56.15122532 108.05663643 51.53180659 108.24777198 46.25 108.3125 C45.08984375 108.35600586 45.08984375 108.35600586 43.90625 108.40039062 C37.47100182 108.4705737 32.34292795 106.85902944 27.39941406 102.63110352 C26.21933008 101.46646027 25.10152087 100.23921098 24 99 C23.67 101.64 23.34 104.28 23 107 C15.41 107 7.82 107 0 107 C0 71.69 0 36.38 0 0 Z " fill="#254E86" transform="translate(519,655)"/>
<path d="M0 0 C12.90157182 10.28186334 19.41551551 20.86981979 23 37 C23 43.27 23 49.54 23 56 C-11.65 56 -46.3 56 -82 56 C-82 26.96833773 -82 26.96833773 -77 19 C-76.54238281 18.20078125 -76.08476562 17.4015625 -75.61328125 16.578125 C-68.06605932 4.25444207 -56.70140282 -3.69068782 -43 -8 C-28.25631223 -10.98858536 -12.4182319 -8.87982463 0 0 Z " fill="#FDFDFD" transform="translate(542,236)"/>
<path d="M0 0 C3.54709943 2.28881857 5.94086779 3.89372356 8.30859375 7.4453125 C7.45394531 8.43273437 6.59929687 9.42015625 5.71875 10.4375 C4.60275635 11.73167751 3.48687684 13.02595345 2.37109375 14.3203125 C1.80712891 14.97128906 1.24316406 15.62226562 0.66210938 16.29296875 C0.12392578 16.91816406 -0.41425781 17.54335938 -0.96875 18.1875 C-1.46624756 18.7635498 -1.96374512 19.33959961 -2.47631836 19.93310547 C-3.78024773 21.4466426 -3.78024773 21.4466426 -4.69140625 23.4453125 C-7.49636862 22.07749939 -10.18571924 20.58251747 -12.87890625 19.0078125 C-22.3491478 13.8199006 -30.79446801 12.20227157 -41.69140625 13.4453125 C-45.41625297 14.63315732 -48.46235709 16.26024164 -51.69140625 18.4453125 C-52.78453125 19.1671875 -53.87765625 19.8890625 -55.00390625 20.6328125 C-62.03407066 27.9899613 -64.03039206 36.41255592 -63.8984375 46.28515625 C-63.31893204 55.13081509 -60.2172357 62.34911951 -53.69140625 68.4453125 C-45.48788921 74.34843678 -37.6220264 75.66201625 -27.69140625 74.4453125 C-24.93728219 73.81139838 -22.33459708 73.06536161 -19.6796875 72.1015625 C-17.69140625 71.4453125 -17.69140625 71.4453125 -14.69140625 71.4453125 C-14.69140625 62.2053125 -14.69140625 52.9653125 -14.69140625 43.4453125 C-7.43140625 43.4453125 -0.17140625 43.4453125 7.30859375 43.4453125 C7.30859375 56.9753125 7.30859375 70.5053125 7.30859375 84.4453125 C-11.60259807 93.27053535 -32.62220504 101.97242744 -53.69140625 94.4453125 C-68.79655281 88.25554348 -80.62790136 78.53275094 -87.06640625 63.1953125 C-91.6200329 51.39547997 -91.24697042 36.19462987 -87.015625 24.40625 C-80.9891008 10.931013 -71.93090831 1.86085527 -58.69140625 -4.5546875 C-55.39755836 -5.78649637 -52.11202056 -6.74910804 -48.69140625 -7.5546875 C-48.07797363 -7.72669678 -47.46454102 -7.89870605 -46.83251953 -8.07592773 C-31.20832147 -11.5695483 -13.62234114 -7.86892856 0 0 Z " fill="#265087" transform="translate(339.69140625,667.5546875)"/>
<path d="M0 0 C6.11359509 5.38884768 9.70272542 12.42472199 10.21708679 20.55195618 C10.27396841 23.87498063 10.26767967 27.19224079 10.23828125 30.515625 C10.23545135 31.72650284 10.23262146 32.93738068 10.22970581 34.18495178 C10.21854905 38.03616393 10.1934523 41.88713989 10.16796875 45.73828125 C10.15793315 48.35611642 10.14880831 50.97395526 10.140625 53.59179688 C10.11862438 59.99488208 10.08412517 66.39779167 10.04296875 72.80078125 C2.45296875 72.80078125 -5.13703125 72.80078125 -12.95703125 72.80078125 C-13.28703125 70.82078125 -13.61703125 68.84078125 -13.95703125 66.80078125 C-14.97023438 67.43306641 -14.97023438 67.43306641 -16.00390625 68.078125 C-16.8959375 68.62597656 -17.78796875 69.17382812 -18.70703125 69.73828125 C-19.58875 70.28355469 -20.47046875 70.82882812 -21.37890625 71.390625 C-29.32216476 75.7353467 -41.66377967 75.15737507 -50.21875 72.96484375 C-56.9182668 69.90748386 -60.9731673 64.98057736 -64.08984375 58.4140625 C-66.10310617 52.34706898 -65.99949264 45.20946747 -63.33203125 39.36328125 C-59.97516391 33.66606274 -54.99822405 30.37150159 -48.95703125 27.80078125 C-44.90226376 26.76667651 -41.08169086 26.68535717 -36.90625 26.703125 C-36.24744339 26.70453995 -35.58863678 26.7059549 -34.90986633 26.70741272 C-32.82137363 26.71297625 -30.73299114 26.72552178 -28.64453125 26.73828125 C-27.22200676 26.74330097 -25.79948059 26.74786305 -24.37695312 26.75195312 C-20.90361048 26.76293368 -17.43033164 26.7801729 -13.95703125 26.80078125 C-14.19527373 21.5681648 -14.19527373 21.5681648 -16.26171875 16.9609375 C-23.47279135 11.92036187 -30.45790169 12.16187537 -38.95703125 12.80078125 C-42.01345983 13.59842572 -44.78816505 14.58555288 -47.6875 15.828125 C-49.77366786 16.72219694 -51.7446837 17.31762489 -53.95703125 17.80078125 C-56.28034109 12.19551431 -58.42448769 6.67553157 -59.95703125 0.80078125 C-42.37302944 -9.24721979 -17.18383957 -12.25679177 0 0 Z " fill="#254F86" transform="translate(488.95703125,689.19921875)"/>
<path d="M0 0 C7.92 0 15.84 0 24 0 C30.8106551 16.61290636 37.51669919 33.25612871 44 50 C46.13510772 47.86489228 46.66218353 46.59753096 47.6640625 43.79736328 C47.97778809 42.92951202 48.29151367 42.06166077 48.61474609 41.16751099 C48.94812988 40.22793549 49.28151367 39.28835999 49.625 38.3203125 C49.97256348 37.35600311 50.32012695 36.39169373 50.67822266 35.39816284 C51.79080521 32.30899147 52.89582012 29.21718373 54 26.125 C55.10526034 23.04036256 56.21213473 19.95632426 57.32177734 16.8732605 C58.01241014 14.95330852 58.70033241 13.0323789 59.38525391 11.11038208 C59.69897949 10.2362265 60.01270508 9.36207092 60.3359375 8.46142578 C60.60970215 7.69468536 60.8834668 6.92794495 61.16552734 6.13796997 C61.9849329 4.03860283 62.992154 2.01569201 64 0 C71.59 0 79.18 0 87 0 C81.43617503 16.44851312 75.14970423 32.5632817 68.69311523 48.67553711 C67.22099257 52.34995037 65.75923345 56.02839178 64.30004025 59.70795536 C63.15605 62.5883593 62.00562563 65.46616166 60.85342598 68.34329033 C60.31191381 69.69815915 59.77253303 71.05388223 59.2355175 72.41053963 C48.83080421 98.66487793 48.83080421 98.66487793 37.8515625 104.0546875 C28.0700779 107.87273911 18.2194223 108.69690217 8.375 104.625 C5.367189 103.24608397 2.75818917 101.83879278 0 100 C1.6658292 93.83643195 4.87805286 88.51740344 8 83 C9.14662109 83.46019531 9.14662109 83.46019531 10.31640625 83.9296875 C17.43555013 86.84641281 17.43555013 86.84641281 25 87 C29.35105922 84.13805232 29.35105922 84.13805232 31.82470703 79.71044922 C32.05724482 76.11485798 31.03127445 74.07144488 29.4921875 70.8203125 C29.21516495 70.22320969 28.9381424 69.62610687 28.65272522 69.01091003 C28.05224886 67.71925891 27.44584733 66.43034932 26.834198 65.14395142 C25.19265014 61.68876763 23.59661848 58.21260913 21.99609375 54.73828125 C21.49871452 53.66265175 21.49871452 53.66265175 20.99128723 52.56529236 C17.45746037 44.89060254 14.17877032 37.11431555 10.9375 29.3125 C10.67281921 28.67677063 10.40813843 28.04104126 10.13543701 27.38604736 C8.8874155 24.38773872 7.64375658 21.38771813 6.40576172 18.38525391 C5.45709257 16.10073734 4.49482971 13.82182488 3.52001953 11.54833984 C3.06095215 10.47406738 2.60188477 9.39979492 2.12890625 8.29296875 C1.71842041 7.34317139 1.30793457 6.39337402 0.88500977 5.41479492 C0 3 0 3 0 0 Z " fill="#274F86" transform="translate(688,683)"/>
<path d="M0 0 C22.77 0 45.54 0 69 0 C69 16 69 16 66.91015625 19.80078125 C65.97042969 20.62964844 65.03070312 21.45851563 64.0625 22.3125 C63.03896182 23.2770858 62.01816814 24.2445913 61 25.21484375 C60.23429688 25.9106958 60.23429688 25.9106958 59.453125 26.62060547 C57.26528598 28.69743519 55.43296593 31.01284909 53.5625 33.375 C49.59455714 38.30638222 45.49854045 43.11101312 41.33618164 47.87841797 C37.65328532 52.13074433 34.39920032 56.46773291 31 61 C44.2 61 57.4 61 71 61 C71 66.94 71 72.88 71 79 C47.24 79 23.48 79 -1 79 C-1 63 -1 63 1.59765625 58.65625 C3.26660156 57.02246094 3.26660156 57.02246094 5.0625 55.5 C6.26744531 54.34950084 7.47187726 53.19846377 8.67578125 52.046875 C9.25537598 51.52029297 9.8349707 50.99371094 10.43212891 50.45117188 C12.35694627 48.66962183 14.06161765 46.75520469 15.75 44.75 C18.26589805 41.83031584 20.84072765 38.9730729 23.4375 36.125 C27.29247116 31.86006621 30.91594337 27.45214345 34.46875 22.93359375 C36 21 36 21 37 20 C18.685 19.505 18.685 19.505 0 19 C0 12.73 0 6.46 0 0 Z " fill="#264F87" transform="translate(614,683)"/>
<path d="M0 0 C10.12674696 -0.10416083 20.25215812 -0.07004405 30.375 0.25 C31.25953857 0.26409912 32.14407715 0.27819824 33.05541992 0.29272461 C36.85538651 0.43973731 39.54586344 0.78791294 43.01953125 2.41015625 C46.06029993 6.38654606 46.03718743 10.29259221 46.3125 15.1875 C46.38388184 16.15896973 46.45526367 17.13043945 46.52880859 18.13134766 C47.11199724 26.75491445 47.20620903 35.36213271 47 44 C42.38 44.33 37.76 44.66 33 45 C32.17648136 38.61773055 31.87913782 32.43255401 32 26 C31.608125 26.35449219 31.21625 26.70898438 30.8125 27.07421875 C18.27257387 38.23583403 5.35207537 48.28067916 -9 57 C-9.78971191 57.48855469 -10.57942383 57.97710938 -11.39306641 58.48046875 C-27.34112512 68.29077884 -49.66783084 82 -68.9375 82 C-72 81 -72 81 -74 78.875 C-75.30782688 75.11499772 -75.06090617 72.81926223 -74 69 C-71.37255517 66.62043413 -68.86833879 65.43173902 -65.5078125 64.38671875 C-64.64373779 64.11093994 -63.77966309 63.83516113 -62.8894043 63.55102539 C-61.97715088 63.26606201 -61.06489746 62.98109863 -60.125 62.6875 C-51.50356001 59.91501895 -43.23134652 56.77673546 -35 53 C-35 52.34 -35 51.68 -35 51 C-33.453125 50.7525 -33.453125 50.7525 -31.875 50.5 C-15.35353806 46.29717196 9.53927645 29.19108532 19 15 C13.39 15 7.78 15 2 15 C0.26379884 8.92329596 -0.20818303 5.93321622 0 0 Z " fill="#9FC936" transform="translate(453,462)"/>
<path d="M0 0 C0 6.93 0 13.86 0 21 C-2.97 21.3403125 -2.97 21.3403125 -6 21.6875 C-13.20408233 22.80185696 -18.46660508 24.64938092 -22.9375 30.5625 C-24.54370237 34.2473172 -25.12468173 37.48417757 -25.20532227 41.49316406 C-25.22526749 42.37377502 -25.24521271 43.25438599 -25.26576233 44.16168213 C-25.29083107 45.57438385 -25.29083107 45.57438385 -25.31640625 47.015625 C-25.33718735 47.98659119 -25.35796844 48.95755737 -25.37937927 49.95794678 C-25.44468862 53.05522685 -25.50367323 56.15259068 -25.5625 59.25 C-25.60570292 61.35157111 -25.64931778 63.4531338 -25.69335938 65.5546875 C-25.80112506 70.70304045 -25.90033713 75.85145829 -26 81 C-33.92 81 -41.84 81 -50 81 C-50 54.6 -50 28.2 -50 1 C-42.41 1 -34.82 1 -27 1 C-26.67 4.3 -26.34 7.6 -26 11 C-24.865625 9.9275 -23.73125 8.855 -22.5625 7.75 C-14.99685528 1.18334006 -10.2276347 0 0 0 Z " fill="#285289" transform="translate(417,682)"/>
<path d="M0 0 C5.08770791 3.00099473 7.68096718 8.04290154 9.5 13.5 C10.44468596 21.61080376 9.10292449 27.72802616 4.5 34.5 C0.23995884 38.76004116 -3.89704231 40.57946097 -9.875 40.8125 C-15.86826136 40.64325508 -19.96444066 39.03555934 -24.25 34.75 C-28.85315111 28.10100395 -30.53511925 22.48350594 -29.5 14.5 C-28.00995759 8.1368629 -25.5258577 3.15369516 -19.97265625 -0.5 C-13.68538395 -3.04271992 -6.21877608 -2.61471267 0 0 Z " fill="#FAFBFB" transform="translate(571.5,703.5)"/>
<path d="M0 0 C1.60488281 0.03383789 1.60488281 0.03383789 3.2421875 0.06835938 C5.87124407 0.12704367 8.49738582 0.2090882 11.125 0.3125 C11.23748624 5.59310398 11.10954634 8.83568049 8.125 13.3125 C1.70299387 18.26279639 -3.92851036 19.18382562 -11.875 18.3125 C-14.87697464 16.51131522 -16.32666366 15.40917268 -17.875 12.3125 C-18.3125 9 -18.3125 9 -17.875 5.3125 C-12.73561425 -0.7844807 -7.58720586 -0.30367511 0 0 Z " fill="#F6F8F9" transform="translate(464.875,728.6875)"/>
<path d="M0 0 C-1.47721422 3.45201639 -3.43794001 5.64961936 -6.125 8.25 C-6.84945313 8.95640625 -7.57390625 9.6628125 -8.3203125 10.390625 C-8.87460937 10.92171875 -9.42890625 11.4528125 -10 12 C-10.99 11.67 -11.98 11.34 -13 11 C-11.21427748 9.16052663 -9.42197551 7.32842259 -7.625 5.5 C-7.11710937 4.97535156 -6.60921875 4.45070312 -6.0859375 3.91015625 C-2.2265625 0 -2.2265625 0 0 0 Z " fill="#2A588D" transform="translate(464,219)"/>
<path d="M0 0 C0.66 0.33 1.32 0.66 2 1 C1.38125 1.433125 0.7625 1.86625 0.125 2.3125 C-3.10027591 6.39152541 -3.33661635 10.9373353 -4 16 C-4.33 16 -4.66 16 -5 16 C-5.13496251 13.89758397 -5.23197307 11.7927039 -5.3125 9.6875 C-5.37050781 8.51574219 -5.42851563 7.34398437 -5.48828125 6.13671875 C-5 3 -5 3 -2.60546875 1.01953125 C-1.74566406 0.68308594 -0.88585937 0.34664062 0 0 Z " fill="#1D497E" transform="translate(619,742)"/>
<path d="M0 0 C0.33 0 0.66 0 1 0 C1.2358396 5.77807024 0.86783046 10.51324804 -1 16 C-1.33 16 -1.66 16 -2 16 C-2.20674944 10.21101581 -1.59162079 5.57067277 0 0 Z " fill="#31588A" transform="translate(335,416)"/>
<path d="M0 0 C1.32 0 2.64 0 4 0 C4 2.97 4 5.94 4 9 C3.67 9 3.34 9 3 9 C2.67 7.02 2.34 5.04 2 3 C0.02 3.99 0.02 3.99 -2 5 C-2 2 -2 2 0 0 Z " fill="#5377A1" transform="translate(473,753)"/>
<path d="M0 0 C-2.38573379 1.89213369 -4.07175348 3.02391783 -7 4 C-7.66 3.01 -8.32 2.02 -9 1 C-5.92677456 0.08941469 -3.19902639 -0.08886184 0 0 Z " fill="#DFE4D9" transform="translate(420,514)"/>
</svg>
